<!--?xml version="1.0" standalone="no"?-->              <svg id="sw-js-blob-svg" viewBox="0 0 100 100" xmlns="http://www.w3.org/2000/svg" version="1.1">                    <defs>                         <linearGradient id="sw-gradient" x1="0" x2="1" y1="1" y2="0">                            <stop id="stop1" stop-color="rgba(224.335, 224.335, 224.335, 1)" offset="0%"></stop>                            <stop id="stop2" stop-color="rgba(210.674, 202.12, 188.001, 1)" offset="100%"></stop>                        </linearGradient>                    </defs>                <path fill="url(#sw-gradient)" d="M11.4,-17.8C16,-17.1,21.8,-16.5,23.3,-13.5C24.9,-10.6,22.3,-5.3,22,-0.2C21.8,5,23.8,9.9,22.5,13.4C21.2,16.9,16.6,18.8,12.3,21.4C8,23.9,4,27.1,-0.1,27.3C-4.2,27.5,-8.4,24.7,-12.3,21.9C-16.2,19.1,-19.7,16.3,-25.3,12.6C-30.9,9,-38.5,4.5,-35.3,1.9C-32.1,-0.8,-18,-1.5,-11.7,-3.9C-5.4,-6.4,-6.9,-10.4,-6.2,-13.4C-5.6,-16.4,-2.8,-18.4,0.3,-18.9C3.4,-19.4,6.8,-18.5,11.4,-17.8Z" width="100%" height="100%" transform="translate(50 50)" stroke-width="0" style="transition: all 0.3s ease 0s;" stroke="url(#sw-gradient)"></path>              </svg>