<?xml version="1.0" encoding="UTF-8" standalone="no"?>
<!DOCTYPE svg PUBLIC "-//W3C//DTD SVG 1.1//EN" "http://www.w3.org/Graphics/SVG/1.1/DTD/svg11.dtd">
<svg width="256" height="256" viewBox="0 0 256 256" version="1.1" xmlns="http://www.w3.org/2000/svg" xmlns:xlink="http://www.w3.org/1999/xlink" xml:space="preserve" xmlns:serif="http://www.serif.com/" style="fill-rule:evenodd;clip-rule:evenodd;stroke-linejoin:round;stroke-miterlimit:2;">
    <g id="Eclipse" transform="matrix(1.07372,0,0,1.07372,-15.6192,-10.8288)">
        <circle cx="133.729" cy="129.216" r="116.309" style="fill:rgb(123,137,209);"/>
    </g>
    <g id="Shadow-2" serif:id="Shadow 2" transform="matrix(2.18057,-2.18057,0.999259,0.999259,-120.41,132.07)">
        <clipPath id="_clip1">
            <path d="M86.541,59.714C102.345,94.202 102.345,150.201 86.541,184.689C70.737,219.177 45.075,219.177 29.27,184.689C13.466,150.201 13.466,94.202 29.27,59.714C45.075,25.226 70.737,25.226 86.541,59.714Z"/>
        </clipPath>
        <g clip-path="url(#_clip1)">
            <path d="M84.203,129.417L36.132,132.381L36.132,216.012L84.203,216.012L84.203,129.417Z" style="fill:rgb(107,124,204);"/>
        </g>
    </g>
    <g id="Shield" transform="matrix(0.672651,0,0,0.672651,41.9007,41.9007)">
        <path d="M224,117.333C224,176.533 183.04,231.893 128,245.333C72.96,231.893 32,176.533 32,117.333L32,53.333L128,10.667L224,53.333L224,117.333M128,224C168,213.333 202.667,165.76 202.667,119.68L202.667,67.2L128,33.92L53.333,67.2L53.333,119.68C53.333,165.76 88,213.333 128,224M157.867,117.333L157.867,101.333C157.867,86.4 142.933,74.667 128,74.667C113.067,74.667 98.133,86.4 98.133,101.333L98.133,117.333C91.733,117.333 85.333,123.733 85.333,130.133L85.333,167.467C85.333,174.933 91.733,181.333 98.133,181.333L156.8,181.333C164.267,181.333 170.667,174.933 170.667,168.533L170.667,131.2C170.667,123.733 164.267,117.333 157.867,117.333M144,117.333L112,117.333L112,101.333C112,92.8 119.467,87.467 128,87.467C136.533,87.467 144,92.8 144,101.333L144,117.333Z" style="fill-rule:nonzero;"/>
        <path d="M124.843,222.891C108.309,217.355 93.621,206.837 80.683,191.243C65.675,173.152 55.765,149.803 53.909,128.149C53.675,125.333 53.6,115.328 53.664,95.648L53.76,67.211L90.88,50.667L128,34.112L165.12,50.656L202.24,67.211L202.24,97.909C202.24,131.413 202.293,130.165 200.427,139.477C195.243,165.291 179.275,191.339 158.464,207.915C150.037,214.635 138.837,220.693 130.347,223.136C129.64,223.337 128.936,223.547 128.235,223.765C128.021,223.84 126.496,223.445 124.843,222.891ZM161.493,180.651C165.109,179.285 168.341,176.299 169.92,172.864L170.613,171.371L170.699,150.603C170.752,136.448 170.677,129.323 170.453,128.245C169.365,123.019 164.331,117.963 159.637,117.408L158.176,117.227L158.048,107.552C157.931,98.869 157.845,97.643 157.269,95.541C154.027,83.669 141.301,74.539 128,74.539C116.8,74.539 105.664,81.088 100.736,90.571C98.304,95.243 98.101,96.459 97.963,107.552L97.824,117.227L96.363,117.408C92.693,117.835 88.469,121.141 86.507,125.088L85.387,127.371L85.301,148.149C85.237,162.507 85.323,169.44 85.547,170.549C86.485,175.061 90.197,179.285 94.539,180.768L96.523,181.451L128.149,181.376C159.755,181.312 159.776,181.312 161.493,180.661L161.493,180.651Z" style="fill:rgb(249,249,249);fill-rule:nonzero;"/>
        <path d="M124.192,222.539C123.098,222.145 121.999,221.765 120.896,221.397C120.193,221.133 119.499,220.845 118.816,220.533C113.931,218.368 112.203,217.568 111.797,217.269C109.859,216.031 107.846,214.912 105.771,213.92C105.611,213.92 105.483,213.76 105.483,213.568C105.483,213.376 105.269,213.227 105.013,213.227C104.757,213.227 104.267,212.907 103.925,212.533C103.573,212.149 103.168,211.84 103.008,211.84C102.848,211.84 102.443,211.616 102.112,211.339C100.93,210.403 99.743,209.475 98.549,208.555C97.042,207.386 95.552,206.194 94.08,204.981C90.139,201.348 86.356,197.547 82.741,193.589C82.073,192.787 81.397,191.99 80.715,191.2C79.282,189.56 77.953,187.832 76.736,186.027C75.509,184.32 74.421,182.827 74.315,182.741C73.595,181.804 72.943,180.816 72.363,179.787L69.973,175.808C68.267,173.013 65.568,167.787 62.891,162.123C61.376,158.923 57.525,147.829 56.811,144.629C55.755,139.829 54.816,135.125 54.677,133.888C54.571,133.035 54.357,131.627 54.197,130.773C54.037,129.92 53.899,115.264 53.888,98.208L53.867,67.2L55.339,66.56L61.312,63.915L64.427,62.528L67.456,61.163C68.267,60.789 71.819,59.221 75.349,57.664C79.253,55.945 83.146,54.203 87.029,52.437L90.069,51.093L93.184,49.707L96.213,48.341L105.653,44.149C111.068,41.774 116.469,39.367 121.856,36.928L125.664,35.2L128,34.123L130.56,35.296C131.968,35.957 134.272,36.981 135.68,37.589C139.104,39.076 142.518,40.587 145.92,42.123C149.076,43.522 152.226,44.933 155.371,46.357C158.94,47.983 162.52,49.583 166.112,51.157C173.465,54.38 180.797,57.651 188.107,60.971C190.123,61.877 197.664,65.216 200.661,66.517L202.133,67.157L202.133,96.32C202.133,127.392 201.973,131.733 200.533,138.539L199.477,143.595C198.944,146.517 194.965,158.069 193.045,162.293C191.072,166.635 187.957,172.587 185.824,176.128C184.946,177.498 184.145,178.915 183.424,180.373C183.424,180.531 183.294,180.661 183.136,180.661C182.987,180.661 182.635,181.088 182.357,181.611C182.093,182.124 181.79,182.616 181.451,183.083L178.549,186.891C173.536,193.525 166.496,201.152 161.621,205.259L159.381,207.157C159.168,207.349 158.379,207.968 157.621,208.523C157.079,208.909 156.559,209.325 156.064,209.771C155.659,210.099 155.223,210.389 154.763,210.635C154.144,210.997 153.632,211.413 153.632,211.563C153.632,211.712 153.397,211.84 153.12,211.84C152.832,211.84 152.587,211.989 152.587,212.181C152.587,212.373 152.363,212.533 152.075,212.533C151.787,212.533 151.563,212.683 151.563,212.875C151.563,213.067 151.328,213.227 151.029,213.227C150.752,213.227 150.517,213.376 150.517,213.568C150.517,213.761 150.358,213.92 150.165,213.92C149.835,213.92 144.32,216.981 143.936,217.376C143.68,217.632 139.989,219.456 139.701,219.456C139.573,219.456 138.485,219.925 137.28,220.491C134.667,221.728 128.928,223.627 127.883,223.595C126.624,223.346 125.389,222.989 124.192,222.528L124.192,222.539ZM155.541,181.248C160.512,181.152 160.832,181.109 162.795,180.128C165.355,178.848 168.021,176.288 169.589,173.557L170.784,171.477L170.891,152.597C171.019,131.275 170.848,128.416 169.323,125.152C167.499,121.248 163.243,117.856 159.552,117.365L158.144,117.173L158.144,109.152C158.144,99.296 157.781,96.139 156.267,92.64C151.211,80.981 137.867,73.301 125.077,74.699C113.984,75.904 104.32,82.613 99.883,92.203C98.315,95.595 97.856,99.339 97.856,108.992L97.856,117.173L96.501,117.355C92.736,117.856 88.715,120.939 86.56,124.96L85.216,127.477L85.216,170.443L86.496,173.12C87.861,175.968 90.272,178.731 92.352,179.819C95.776,181.6 94.571,181.547 123.467,181.44C134.158,181.416 144.85,181.352 155.541,181.248Z" style="fill:rgb(249,249,249);fill-rule:nonzero;"/>
        <path d="M112.064,109.184C112.064,97.973 112.491,96.096 115.925,92.469C121.899,86.155 134.08,86.123 140.032,92.416C143.509,96.096 143.936,97.931 143.936,109.184L143.936,117.259L112.064,117.259L112.064,109.184Z" style="fill:rgb(179,179,179);fill-rule:nonzero;"/>
        <path d="M124.021,222.549C122.453,222.024 120.906,221.441 119.381,220.8C118.352,220.336 117.313,219.892 116.267,219.467C115.184,219.016 114.126,218.507 113.099,217.941C112.184,217.428 111.26,216.934 110.325,216.459C108.654,215.599 107.036,214.637 105.483,213.579C105.129,213.318 104.75,213.093 104.352,212.907C103.829,212.629 103.403,212.288 103.403,212.128C103.403,211.968 103.243,211.84 103.051,211.84C102.603,211.84 96.736,207.36 93.739,204.736C91.829,203.061 84.309,195.456 82.251,193.12C79.275,189.739 71.883,179.712 71.883,179.061C71.661,178.559 71.366,178.092 71.008,177.675C70.661,177.262 70.373,176.802 70.155,176.309C70.155,176.181 69.621,175.189 68.971,174.123C66.651,169.977 64.495,165.743 62.507,161.429C60.629,157.291 56.747,145.035 55.765,140.128C53.899,130.859 53.92,131.349 53.888,98.187L53.867,67.157L55.52,66.432C65.411,62.034 75.295,57.622 85.173,53.195C86.859,52.416 88.341,51.787 88.469,51.787C88.901,51.657 89.316,51.478 89.707,51.253C90.261,50.955 92.523,49.931 94.72,48.96C96.939,47.989 100.043,46.592 101.632,45.845C103.221,45.109 104.576,44.512 104.651,44.512C104.725,44.512 105.685,44.107 106.784,43.605L109.824,42.24C114.33,40.198 118.845,38.179 123.371,36.181L128,34.123L133.109,36.405L139.595,39.296L171.552,53.536L202.123,67.147L202.123,96.619C202.123,114.091 201.973,127.723 201.771,130.08C201.045,138.112 198.571,148.181 195.051,157.451C192.352,164.512 187.157,174.581 182.784,181.173C179.542,185.74 176.111,190.171 172.501,194.453C171.072,196.181 163.424,203.787 161.643,205.269C160.619,206.123 159.467,207.083 159.083,207.424C158.385,207.996 157.674,208.551 156.949,209.088C152.608,212.341 151.339,213.216 150.976,213.216C150.752,213.216 150.517,213.355 150.443,213.515C150.336,213.771 147.296,215.541 142.443,218.176C141.44,218.709 139.616,219.563 138.389,220.053C137.5,220.385 136.631,220.77 135.787,221.205C135.232,221.621 128.608,223.616 127.829,223.605C127.445,223.605 125.717,223.125 124.011,222.539L124.021,222.549ZM160.928,180.8C163.104,180.16 166.635,177.771 167.883,176.096C168.551,175.165 169.178,174.204 169.76,173.216L170.773,171.477L170.837,152.245C170.923,130.411 170.795,128.192 169.28,125.109C167.36,121.216 163.115,117.835 159.552,117.355L158.144,117.173L158.144,109.323C158.144,100.352 157.771,96.672 156.565,93.461C153.931,86.464 147.339,79.989 139.701,76.896C127.701,72.063 113.885,75.154 105.088,84.64C102.112,87.829 100.565,90.272 99.392,93.664C98.176,97.163 97.888,100.096 97.867,109.163L97.867,117.163L96.448,117.355C92.779,117.845 88.469,121.227 86.379,125.259L85.227,127.477L85.227,148.96L85.216,170.443L86.496,173.12C88.363,177.035 91.52,179.947 95.093,181.024C95.563,181.173 110.155,181.301 127.509,181.323C155.499,181.344 159.264,181.291 160.939,180.789L160.928,180.8Z" style="fill:rgb(249,249,249);fill-rule:nonzero;"/>
        <path d="M123.147,222.272C120.927,221.47 118.733,220.602 116.565,219.669C112.16,217.717 103.744,212.885 103.456,212.139C103.37,211.963 103.193,211.848 102.997,211.84C102.528,211.84 97.685,208.107 93.707,204.693C89.237,200.628 85.009,196.304 81.045,191.744C77.845,187.925 70.144,177.013 70.144,176.32C69.887,175.75 69.58,175.204 69.227,174.688C68.075,172.864 63.68,164.235 62.421,161.291C59.598,154.441 57.371,147.361 55.765,140.128C53.909,131.061 53.92,131.392 53.888,98.187L53.856,67.147L71.616,59.253C81.387,54.912 90.155,50.997 91.115,50.56L110.432,41.931L128.011,34.101L140.384,39.616C160.312,48.489 180.237,57.367 200.16,66.251L202.155,67.125L202.112,98.165C202.091,115.776 201.931,130.187 201.739,131.467C200.469,140.128 199.339,144.981 196.875,152.373C190.829,170.277 180.723,186.543 167.349,199.893C160.672,206.539 153.696,212.011 147.915,215.136C146.799,215.732 145.703,216.366 144.629,217.035C142.88,218.208 135.787,221.344 132.501,222.4C131.456,222.731 130.24,223.147 129.803,223.317C128.405,223.851 126.88,223.605 123.147,222.272ZM162.763,180.021C165.621,178.613 168.331,175.968 169.707,173.205L170.709,171.221L170.816,152.811C170.923,131.445 170.773,128.309 169.472,125.461C167.691,121.568 163.307,117.973 159.659,117.408L158.219,117.195L158.037,107.435C157.824,95.445 157.397,93.547 153.76,88.117C149.323,81.504 141.28,76.405 133.056,74.976C129.696,74.389 122.944,74.741 119.861,75.659C116.64,76.619 112.096,78.827 109.451,80.704C106.677,82.699 103.008,86.677 101.323,89.525C98.517,94.293 97.867,98.059 97.867,109.653L97.867,117.12L95.808,117.547C92.021,118.325 88.341,121.419 86.251,125.557L85.301,127.445L85.259,148.939L85.216,170.443L86.165,172.469C87.552,175.435 89.291,177.632 91.392,179.083C94.869,181.472 92.619,181.333 128.181,181.248L160.405,181.173L162.763,180.021Z" style="fill:rgb(249,249,249);fill-rule:nonzero;"/>
        <path d="M112.085,113.536C112.117,106.304 112.672,98.432 113.259,96.811C113.899,94.987 116.213,92.203 118.251,90.795C123.189,87.371 130.848,87.008 136.352,89.941C138.912,91.307 141.941,94.539 142.741,96.768C143.328,98.411 143.872,106.293 143.915,113.707L143.936,117.259L112.064,117.259L112.085,113.536Z" style="fill:rgb(249,249,249);fill-rule:nonzero;"/>
        <path d="M123.499,222.421C101.611,214.752 81.888,197.163 68.331,173.205C61.248,160.715 55.957,145.109 54.229,131.637C54.059,130.304 53.909,115.243 53.888,98.176L53.856,67.136L58.976,64.853L80.533,55.253L112.501,41.013L128.011,34.101L164.117,50.187L201.195,66.72L202.155,67.168L202.027,99.584C201.899,131.072 201.867,132.117 201.141,135.979C198.47,150.444 193.169,164.298 185.504,176.853L184.171,179.115C183.616,180.064 182.528,181.696 181.749,182.741L179.2,186.208C173.569,193.726 167.13,200.605 160,206.72C156.459,209.632 151.221,213.333 148.597,214.784C147.648,215.307 145.856,216.341 144.608,217.077C140.235,219.669 130.048,223.648 127.872,223.605C126.375,223.363 124.906,222.97 123.488,222.432L123.499,222.421ZM162.389,180.235C164.971,179.029 168.149,175.979 169.536,173.408L170.603,171.381L170.763,153.248C170.923,132.395 170.741,128.363 169.493,125.579C167.787,121.739 163.232,117.984 159.595,117.408L158.144,117.173L158.133,110.027C158.112,97.92 157.504,94.411 154.581,89.504C151.383,84.29 146.693,80.154 141.12,77.632C137.556,75.82 133.629,74.835 129.632,74.752C124.082,74.387 118.539,75.58 113.632,78.197C107.733,81.163 102.24,86.784 99.915,92.203C98.4,95.733 98.155,97.643 97.963,107.605L97.771,117.184L96.341,117.397C92.725,117.963 88.587,121.216 86.517,125.12L85.387,127.243L85.365,148.928L85.344,170.624L86.549,173.131C88.512,177.205 92.032,180.299 95.488,180.981C96.32,181.152 111.264,181.259 128.693,181.227L160.395,181.173L162.389,180.235Z" style="fill:rgb(249,249,249);fill-rule:nonzero;"/>
        <path d="M112.32,111.627C112.48,103.392 112.992,98.037 113.792,96.235C114.645,94.315 117.995,90.955 120.032,89.973C125.075,87.599 130.925,87.599 135.968,89.973C137.995,90.944 141.355,94.304 142.197,96.203C142.965,97.952 143.531,103.968 143.669,111.979L143.776,117.259L112.203,117.259L112.32,111.627Z" style="fill:white;fill-rule:nonzero;"/>
        <path d="M112.512,109.899C112.853,97.525 113.301,95.872 117.237,92.224C121.568,88.213 128.373,87.189 134.773,89.579C137.12,90.453 140.8,93.76 141.813,95.893C142.784,97.931 143.243,101.76 143.488,110.08L143.701,117.259L112.309,117.259L112.512,109.899Z" style="fill:white;fill-rule:nonzero;"/>
        <path d="M123.499,222.421C105.056,215.957 88.619,202.901 75.093,183.936C65.111,169.85 58.262,153.787 55.008,136.832L54.048,131.979L53.941,99.552L53.835,67.136L68.832,60.448L105.941,43.915L128.043,34.08L154.603,45.92L191.669,62.453L202.155,67.125L202.112,98.165C202.091,122.869 201.973,129.92 201.589,132.672C199.477,147.605 193.824,163.232 185.621,176.757C172.256,198.784 152.512,215.701 132.213,222.517C130.813,223.032 129.361,223.394 127.883,223.595C126.386,223.352 124.917,222.959 123.499,222.421ZM162.304,180.288C165.292,178.7 167.79,176.324 169.525,173.419L170.624,171.349L170.656,150.443C170.677,127.36 170.656,127.168 168.48,123.755C166.496,120.661 162.613,117.888 159.605,117.408L158.24,117.195L158.048,107.787C157.835,97.504 157.611,95.84 155.861,92.021C151.883,83.36 143.072,76.789 133.045,75.019C120.437,72.779 106.123,79.872 100.469,91.157C98.528,95.029 98.208,97.184 97.963,107.819C97.771,116.629 97.717,117.259 97.131,117.259C96,117.259 93.216,118.357 91.701,119.403C89.525,120.896 87.648,122.976 86.453,125.237L85.387,127.232L85.387,170.624L86.4,172.864C87.552,175.403 90.325,178.539 92.587,179.861C93.397,180.341 94.88,180.853 95.883,181.003C96.875,181.152 111.797,181.259 129.035,181.227L160.395,181.173L162.304,180.288Z" style="fill:white;fill-rule:nonzero;"/>
        <path d="M122.453,243.584C108.779,239.424 94.325,231.733 82.613,222.379C77.387,218.197 66.667,207.403 62.379,202.005C49.227,185.429 39.701,165.579 35.328,145.579C32.363,132.075 32.16,128.117 32.277,87.499L32.384,53.397L128,10.901L223.616,53.397L223.616,89.92C223.616,128.896 223.595,129.568 221.845,139.605C217.777,162.449 208.058,183.917 193.579,202.048C189.259,207.467 178.539,218.261 173.387,222.379C164.427,229.525 152.907,236.267 142.539,240.427C137.963,242.261 128.971,245.12 127.861,245.077C127.552,245.067 125.12,244.395 122.453,243.584ZM132.16,222.891C155.637,215.275 178.283,193.867 191.467,166.805C195.52,158.453 199.275,147.371 200.917,138.891C202.667,129.803 202.731,128.619 202.901,96.971L203.072,67.147L165.579,50.443C142.603,40.203 127.872,33.813 127.52,33.941L89.941,50.667L52.928,67.168L53.099,96.981C53.237,121.387 53.365,127.552 53.813,130.955C56.629,152.48 65.387,172.768 79.541,190.539C83.275,195.232 92.235,204.235 96.651,207.733C105.792,214.987 114.485,219.819 123.989,222.955C126.155,223.669 128.107,224.203 128.32,224.139L132.16,222.901L132.16,222.891Z" style="fill:rgb(255,111,0);fill-rule:nonzero;"/>
        <path d="M95.605,180.683C92.373,180.021 88.704,176.821 86.837,173.045L85.739,170.805L85.739,127.488L86.667,125.483C88.48,121.643 92.96,118.155 96.672,117.717L98.379,117.504L98.379,108.288C98.389,97.515 98.656,95.733 100.971,91.061C104.48,83.936 112.171,78.016 120.768,75.84C134.347,72.395 149.515,79.36 155.403,91.744C157.323,95.808 157.611,97.888 157.611,108.288L157.611,117.515L159.328,117.717C161.771,118.005 163.701,119.104 166.315,121.728C167.968,123.392 168.821,124.587 169.429,126.101L170.261,128.171L170.368,149.152C170.475,169.92 170.475,170.165 169.728,172.128C168.693,174.912 165.547,178.208 162.528,179.701L160.235,180.832L128.523,180.885C111.093,180.907 96.277,180.821 95.605,180.672L95.605,180.683ZM144.043,107.648L143.936,97.685L142.955,95.68C140.363,90.411 135.008,87.467 128,87.467C120.992,87.467 115.637,90.411 113.045,95.68L112.064,97.685L111.851,117.611L144.16,117.611L144.043,107.648Z" style="fill:rgb(63,81,181);fill-rule:nonzero;"/>
    </g>
</svg>
